# xmcd
#
# Track frame offsets: 
#        150
#        20219
#        38127
#        60531
#        73899
#        98419
#        115765
#        137521
#        157512
#        183220
#
# Disc length: 2761 seconds
#
# Revision: 0
# Processed by: cddbd v1.5.2PL0 Copyright (c) Steve Scherf et al.
# Submitted via: ExactAudioCopy v0.95b3
#
DISCID=770ac70a
DTITLE=Brendan Flynn and the Terrible Liars - Sweater Weather
DYEAR=2009
DGENRE=Crossover
TTITLE0=Bleeding Hands
TTITLE1=Shades and Colours
TTITLE2=Ordinary Pills
TTITLE3=Two Of Us
TTITLE4=Slippin' Through
TTITLE5=Someone To Blame
TTITLE6=Everything
TTITLE7=Before The Shame Sets In
TTITLE8=Day To Day
TTITLE9=Harboured And Gone
EXTD=
EXTT0=
EXTT1=
EXTT2=
EXTT3=
EXTT4=
EXTT5=
EXTT6=
EXTT7=
EXTT8=
EXTT9=
PLAYORDER=
